<svg width="29" height="18" viewBox="0 0 29 18" fill="none" xmlns="http://www.w3.org/2000/svg">
<g filter="url(#filter0_i_382_4578)">
<g clip-path="url(#clip0_382_4578)">
<rect y="0.107422" width="8.61938" height="17.8799" rx="4.30969" fill="#9537E1"/>
<g filter="url(#filter1_f_382_4578)">
<path d="M3.68132 10.1671C-10.1382 4.15486 -10.9218 4.04085 -14.8753 16.1864C-17.6392 12.3112 -12.0972 -4.47167 -5.04492 -2.65515C-2.55172 -2.65515 15.899 7.78175 22.8078 5.28749C30.5011 2.50999 39.7972 -5.63507 45.1042 -5.21953C44.748 -2.50074 40.8586 4.39059 36.9835 7.21148C33.1083 10.0324 30.8573 12.7671 22.8078 16.1864C22.1904 16.685 17.5008 16.1793 3.68132 10.1671Z" fill="#6E37E1"/>
</g>
<g filter="url(#filter2_f_382_4578)">
<path d="M3.68132 21.7066C-10.1382 15.6944 -10.9218 15.5804 -14.8753 27.7259C-17.6392 23.8508 -12.0972 7.06788 -5.04492 8.8844C-2.55172 8.8844 15.899 19.3213 22.8078 16.827C30.5011 14.0495 39.7972 5.90449 45.1042 6.32002C44.748 9.03881 40.8586 15.9301 36.9835 18.751C33.1083 21.5719 30.8573 24.3066 22.8078 27.7259C22.1904 28.2246 17.5008 27.7188 3.68132 21.7066Z" fill="#B537E1"/>
</g>
<g filter="url(#filter3_f_382_4578)">
<path d="M3.68132 33.2467C-10.1382 27.2345 -10.9218 27.1204 -14.8753 39.266C-17.6392 35.3908 -12.0972 18.6079 -5.04492 20.4244C-2.55172 20.4244 15.899 30.8613 22.8078 28.3671C30.5011 25.5896 39.7972 17.4445 45.1042 17.8601C44.748 20.5788 40.8586 27.4702 36.9835 30.2911C33.1083 33.112 30.8573 35.8467 22.8078 39.266C22.1904 39.7646 17.5008 39.2589 3.68132 33.2467Z" fill="#3B37E1"/>
</g>
</g>
</g>
<g filter="url(#filter4_i_382_4578)">
<g clip-path="url(#clip1_382_4578)">
<rect x="9.84473" y="6.73193" width="8.61938" height="11.2551" rx="4.30969" fill="#9537E1"/>
<g filter="url(#filter5_f_382_4578)">
<path d="M13.5256 0.549391C-0.293949 -5.46281 -1.07754 -5.57682 -5.03105 6.56871C-7.79496 2.69353 -2.25291 -14.0893 4.79932 -12.2728C7.29252 -12.2728 25.7433 -1.83593 32.652 -4.33018C40.3454 -7.10769 49.6415 -15.2527 54.9485 -14.8372C54.5923 -12.1184 50.7029 -5.22709 46.8277 -2.4062C42.9526 0.414691 40.7015 3.14942 32.652 6.56871C32.0347 7.06735 27.3451 6.56159 13.5256 0.549391Z" fill="#6E37E1"/>
</g>
<g filter="url(#filter6_f_382_4578)">
<path d="M13.5256 12.0899C-0.293949 6.07771 -1.07754 5.96371 -5.03105 18.1092C-7.79496 14.2341 -2.25291 -2.54882 4.79932 -0.732303C7.29252 -0.732303 25.7433 9.7046 32.652 7.21035C40.3454 4.43284 49.6415 -3.71221 54.9485 -3.29668C54.5923 -0.57789 50.7029 6.31344 46.8277 9.13433C42.9526 11.9552 40.7015 14.6899 32.652 18.1092C32.0347 18.6079 27.3451 18.1021 13.5256 12.0899Z" fill="#B537E1"/>
</g>
<g filter="url(#filter7_f_382_4578)">
<path d="M13.5256 23.63C-0.293949 17.6178 -1.07754 17.5037 -5.03105 29.6493C-7.79496 25.7741 -2.25291 8.99122 4.79932 10.8077C7.29252 10.8077 25.7433 21.2446 32.652 18.7504C40.3454 15.9729 49.6415 7.82782 54.9485 8.24336C54.5923 10.9621 50.7029 17.8535 46.8277 20.6744C42.9526 23.4953 40.7015 26.23 32.652 29.6493C32.0347 30.1479 27.3451 29.6422 13.5256 23.63Z" fill="#3B37E1"/>
</g>
</g>
</g>
<g filter="url(#filter8_i_382_4578)">
<g clip-path="url(#clip2_382_4578)">
<rect x="19.6895" y="0.107422" width="8.69062" height="17.8799" rx="4.34531" fill="#9537E1"/>
<g filter="url(#filter9_f_382_4578)">
<path d="M23.3713 10.1666C9.55175 4.15438 8.76816 4.04037 4.81465 16.1859C2.05075 12.3107 7.59279 -4.47216 14.645 -2.65564C17.1382 -2.65564 35.589 7.78126 42.4977 5.28701C50.1911 2.5095 59.4872 -5.63555 64.7942 -5.22002C64.438 -2.50123 60.5486 4.3901 56.6734 7.21099C52.7983 10.0319 50.5472 12.7666 42.4977 16.1859C41.8804 16.6845 37.1908 16.1788 23.3713 10.1666Z" fill="#6E37E1"/>
</g>
<g filter="url(#filter10_f_382_4578)">
<path d="M23.3713 21.7066C9.55175 15.6944 8.76816 15.5804 4.81465 27.7259C2.05075 23.8508 7.59279 7.06788 14.645 8.8844C17.1382 8.8844 35.589 19.3213 42.4977 16.827C50.1911 14.0495 59.4872 5.90449 64.7942 6.32002C64.438 9.03881 60.5486 15.9301 56.6734 18.751C52.7983 21.5719 50.5472 24.3066 42.4977 27.7259C41.8804 28.2246 37.1908 27.7188 23.3713 21.7066Z" fill="#B537E1"/>
</g>
<g filter="url(#filter11_f_382_4578)">
<path d="M23.3713 33.2467C9.55175 27.2345 8.76816 27.1204 4.81465 39.266C2.05075 35.3908 7.59279 18.6079 14.645 20.4244C17.1382 20.4244 35.589 30.8613 42.4977 28.3671C50.1911 25.5896 59.4872 17.4445 64.7942 17.8601C64.438 20.5788 60.5486 27.4702 56.6734 30.2911C52.7983 33.112 50.5472 35.8467 42.4977 39.266C41.8804 39.7646 37.1908 39.2589 23.3713 33.2467Z" fill="#3B37E1"/>
</g>
</g>
</g>
<defs>
<filter id="filter0_i_382_4578" x="0" y="0.107422" width="8.91479" height="18.1755" filterUnits="userSpaceOnUse" color-interpolation-filters="sRGB">
<feFlood flood-opacity="0" result="BackgroundImageFix"/>
<feBlend mode="normal" in="SourceGraphic" in2="BackgroundImageFix" result="shape"/>
<feColorMatrix in="SourceAlpha" type="matrix" values="0 0 0 0 0 0 0 0 0 0 0 0 0 0 0 0 0 0 127 0" result="hardAlpha"/>
<feMorphology radius="0.591308" operator="erode" in="SourceAlpha" result="effect1_innerShadow_382_4578"/>
<feOffset dx="0.295654" dy="0.295654"/>
<feGaussianBlur stdDeviation="0.443481"/>
<feComposite in2="hardAlpha" operator="arithmetic" k2="-1" k3="1"/>
<feColorMatrix type="matrix" values="0 0 0 0 1 0 0 0 0 1 0 0 0 0 1 0 0 0 0.15 0"/>
<feBlend mode="normal" in2="shape" result="effect1_innerShadow_382_4578"/>
</filter>
<filter id="filter1_f_382_4578" x="-23.0085" y="-12.6433" width="75.5209" height="36.3837" filterUnits="userSpaceOnUse" color-interpolation-filters="sRGB">
<feFlood flood-opacity="0" result="BackgroundImageFix"/>
<feBlend mode="normal" in="SourceGraphic" in2="BackgroundImageFix" result="shape"/>
<feGaussianBlur stdDeviation="3.7042" result="effect1_foregroundBlur_382_4578"/>
</filter>
<filter id="filter2_f_382_4578" x="-23.0085" y="-1.10371" width="75.5209" height="36.3837" filterUnits="userSpaceOnUse" color-interpolation-filters="sRGB">
<feFlood flood-opacity="0" result="BackgroundImageFix"/>
<feBlend mode="normal" in="SourceGraphic" in2="BackgroundImageFix" result="shape"/>
<feGaussianBlur stdDeviation="3.7042" result="effect1_foregroundBlur_382_4578"/>
</filter>
<filter id="filter3_f_382_4578" x="-23.0085" y="10.4363" width="75.5209" height="36.3837" filterUnits="userSpaceOnUse" color-interpolation-filters="sRGB">
<feFlood flood-opacity="0" result="BackgroundImageFix"/>
<feBlend mode="normal" in="SourceGraphic" in2="BackgroundImageFix" result="shape"/>
<feGaussianBlur stdDeviation="3.7042" result="effect1_foregroundBlur_382_4578"/>
</filter>
<filter id="filter4_i_382_4578" x="9.84473" y="6.73193" width="8.91479" height="11.5505" filterUnits="userSpaceOnUse" color-interpolation-filters="sRGB">
<feFlood flood-opacity="0" result="BackgroundImageFix"/>
<feBlend mode="normal" in="SourceGraphic" in2="BackgroundImageFix" result="shape"/>
<feColorMatrix in="SourceAlpha" type="matrix" values="0 0 0 0 0 0 0 0 0 0 0 0 0 0 0 0 0 0 127 0" result="hardAlpha"/>
<feMorphology radius="0.591308" operator="erode" in="SourceAlpha" result="effect1_innerShadow_382_4578"/>
<feOffset dx="0.295654" dy="0.295654"/>
<feGaussianBlur stdDeviation="0.443481"/>
<feComposite in2="hardAlpha" operator="arithmetic" k2="-1" k3="1"/>
<feColorMatrix type="matrix" values="0 0 0 0 1 0 0 0 0 1 0 0 0 0 1 0 0 0 0.15 0"/>
<feBlend mode="normal" in2="shape" result="effect1_innerShadow_382_4578"/>
</filter>
<filter id="filter5_f_382_4578" x="-13.1643" y="-22.2609" width="75.5209" height="36.3837" filterUnits="userSpaceOnUse" color-interpolation-filters="sRGB">
<feFlood flood-opacity="0" result="BackgroundImageFix"/>
<feBlend mode="normal" in="SourceGraphic" in2="BackgroundImageFix" result="shape"/>
<feGaussianBlur stdDeviation="3.7042" result="effect1_foregroundBlur_382_4578"/>
</filter>
<filter id="filter6_f_382_4578" x="-13.1643" y="-10.7204" width="75.5209" height="36.3837" filterUnits="userSpaceOnUse" color-interpolation-filters="sRGB">
<feFlood flood-opacity="0" result="BackgroundImageFix"/>
<feBlend mode="normal" in="SourceGraphic" in2="BackgroundImageFix" result="shape"/>
<feGaussianBlur stdDeviation="3.7042" result="effect1_foregroundBlur_382_4578"/>
</filter>
<filter id="filter7_f_382_4578" x="-13.1643" y="0.819629" width="75.5209" height="36.3837" filterUnits="userSpaceOnUse" color-interpolation-filters="sRGB">
<feFlood flood-opacity="0" result="BackgroundImageFix"/>
<feBlend mode="normal" in="SourceGraphic" in2="BackgroundImageFix" result="shape"/>
<feGaussianBlur stdDeviation="3.7042" result="effect1_foregroundBlur_382_4578"/>
</filter>
<filter id="filter8_i_382_4578" x="19.6895" y="0.107422" width="8.98608" height="18.1755" filterUnits="userSpaceOnUse" color-interpolation-filters="sRGB">
<feFlood flood-opacity="0" result="BackgroundImageFix"/>
<feBlend mode="normal" in="SourceGraphic" in2="BackgroundImageFix" result="shape"/>
<feColorMatrix in="SourceAlpha" type="matrix" values="0 0 0 0 0 0 0 0 0 0 0 0 0 0 0 0 0 0 127 0" result="hardAlpha"/>
<feMorphology radius="0.591308" operator="erode" in="SourceAlpha" result="effect1_innerShadow_382_4578"/>
<feOffset dx="0.295654" dy="0.295654"/>
<feGaussianBlur stdDeviation="0.443481"/>
<feComposite in2="hardAlpha" operator="arithmetic" k2="-1" k3="1"/>
<feColorMatrix type="matrix" values="0 0 0 0 1 0 0 0 0 1 0 0 0 0 1 0 0 0 0.15 0"/>
<feBlend mode="normal" in2="shape" result="effect1_innerShadow_382_4578"/>
</filter>
<filter id="filter9_f_382_4578" x="-3.31855" y="-12.6438" width="75.5209" height="36.3837" filterUnits="userSpaceOnUse" color-interpolation-filters="sRGB">
<feFlood flood-opacity="0" result="BackgroundImageFix"/>
<feBlend mode="normal" in="SourceGraphic" in2="BackgroundImageFix" result="shape"/>
<feGaussianBlur stdDeviation="3.7042" result="effect1_foregroundBlur_382_4578"/>
</filter>
<filter id="filter10_f_382_4578" x="-3.31855" y="-1.10371" width="75.5209" height="36.3837" filterUnits="userSpaceOnUse" color-interpolation-filters="sRGB">
<feFlood flood-opacity="0" result="BackgroundImageFix"/>
<feBlend mode="normal" in="SourceGraphic" in2="BackgroundImageFix" result="shape"/>
<feGaussianBlur stdDeviation="3.7042" result="effect1_foregroundBlur_382_4578"/>
</filter>
<filter id="filter11_f_382_4578" x="-3.31855" y="10.4363" width="75.5209" height="36.3837" filterUnits="userSpaceOnUse" color-interpolation-filters="sRGB">
<feFlood flood-opacity="0" result="BackgroundImageFix"/>
<feBlend mode="normal" in="SourceGraphic" in2="BackgroundImageFix" result="shape"/>
<feGaussianBlur stdDeviation="3.7042" result="effect1_foregroundBlur_382_4578"/>
</filter>
<clipPath id="clip0_382_4578">
<rect y="0.107422" width="8.61938" height="17.8799" rx="4.30969" fill="white"/>
</clipPath>
<clipPath id="clip1_382_4578">
<rect x="9.84473" y="6.73193" width="8.61938" height="11.2551" rx="4.30969" fill="white"/>
</clipPath>
<clipPath id="clip2_382_4578">
<rect x="19.6895" y="0.107422" width="8.69062" height="17.8799" rx="4.34531" fill="white"/>
</clipPath>
</defs>
</svg>
