<svg width="399" height="91" viewBox="0 0 399 91" fill="none" xmlns="http://www.w3.org/2000/svg">
<path d="M148.59 71.8276L128.971 4.41105H146.977L157.149 48.5873H157.708L169.328 4.41105H184.01L195.63 48.6861H196.19L206.394 4.41105H224.368L204.781 71.8276H189.079L176.933 30.9432H176.406L164.259 71.8276H148.59Z" fill="black"/>
<path d="M232.953 71.8276V21.2652H249.05V71.8276H232.953ZM241.018 15.3728C238.758 15.3728 236.816 14.6267 235.192 13.1344C233.568 11.6201 232.756 9.79867 232.756 7.66995C232.756 5.56318 233.568 3.76365 235.192 2.27136C236.816 0.757121 238.758 0 241.018 0C243.301 0 245.243 0.757121 246.845 2.27136C248.469 3.76365 249.281 5.56318 249.281 7.66995C249.281 9.79867 248.469 11.6201 246.845 13.1344C245.243 14.6267 243.301 15.3728 241.018 15.3728Z" fill="black"/>
<path d="M277.247 42.9912V71.8276H261.15V21.2652H276.457V30.5481H277.017C278.136 27.4538 280.045 25.0288 282.745 23.2732C285.444 21.4956 288.659 20.6068 292.39 20.6068C295.945 20.6068 299.028 21.4078 301.64 23.0099C304.273 24.5899 306.314 26.8064 307.762 29.6593C309.233 32.4903 309.957 35.8041 309.935 39.6007V71.8276H293.838V42.7608C293.86 39.9518 293.147 37.7572 291.698 36.1772C290.272 34.5971 288.286 33.807 285.74 33.807C284.05 33.807 282.558 34.1801 281.263 34.9263C279.99 35.6505 279.003 36.6929 278.301 38.0535C277.62 39.4141 277.269 41.06 277.247 42.9912Z" fill="black"/>
<path d="M337.852 4.41105V71.8276H321.755V4.41105H337.852Z" fill="black"/>
<path d="M359.794 90.7885C357.863 90.7885 356.042 90.6349 354.33 90.3277C352.618 90.0424 351.148 89.6583 349.919 89.1755L353.474 77.4896C355.054 78.0163 356.481 78.3235 357.753 78.4113C359.048 78.4991 360.156 78.2906 361.078 77.7858C362.022 77.303 362.746 76.4362 363.251 75.1853L363.876 73.6711L345.903 21.2652H362.757L372.073 57.3436H372.6L382.047 21.2652H399L379.94 76.6666C379.019 79.4317 377.713 81.8677 376.023 83.9745C374.355 86.1032 372.194 87.771 369.538 88.978C366.905 90.185 363.657 90.7885 359.794 90.7885Z" fill="black"/>
<g filter="url(#filter0_i_251_3070)">
<g clip-path="url(#clip0_251_3070)">
<rect y="4.18906" width="32.6059" height="67.6371" rx="16.303" fill="#9537E1"/>
<g filter="url(#filter1_f_251_3070)">
<path d="M13.9267 42.2425C-38.3506 19.4992 -41.3148 19.0679 -56.2704 65.0127C-66.7258 50.3535 -45.7611 -13.1338 -19.0835 -6.26215C-9.65205 -6.26215 60.1446 33.2192 86.2794 23.7837C115.382 13.2769 150.548 -17.5347 170.624 -15.9628C169.276 -5.67802 154.563 20.3909 139.904 31.0619C125.245 41.7329 116.73 52.078 86.2794 65.0127C83.944 66.899 66.2039 64.9858 13.9267 42.2425Z" fill="#6E37E1"/>
</g>
<g filter="url(#filter2_f_251_3070)">
<path d="M13.9267 85.896C-38.3506 63.1527 -41.3148 62.7214 -56.2704 108.666C-66.7258 94.007 -45.7611 30.5198 -19.0835 37.3914C-9.65205 37.3914 60.1446 76.8727 86.2794 67.4373C115.382 56.9304 150.548 26.1188 170.624 27.6907C169.276 37.9755 154.563 64.0444 139.904 74.7154C125.245 85.3865 116.73 95.7315 86.2794 108.666C83.944 110.553 66.2039 108.639 13.9267 85.896Z" fill="#B537E1"/>
</g>
<g filter="url(#filter3_f_251_3070)">
<path d="M13.9267 129.551C-38.3506 106.807 -41.3148 106.376 -56.2704 152.321C-66.7258 137.662 -45.7611 74.1744 -19.0835 81.046C-9.65205 81.046 60.1446 120.527 86.2794 111.092C115.382 100.585 150.548 69.7734 170.624 71.3454C169.276 81.6301 154.563 107.699 139.904 118.37C125.245 129.041 116.73 139.386 86.2794 152.321C83.944 154.207 66.2039 152.294 13.9267 129.551Z" fill="#3B37E1"/>
</g>
</g>
</g>
<g filter="url(#filter4_i_251_3070)">
<g clip-path="url(#clip1_251_3070)">
<rect x="37.2409" y="29.2498" width="32.6059" height="42.5763" rx="16.303" fill="#9537E1"/>
<g filter="url(#filter5_f_251_3070)">
<path d="M51.1654 5.86286C-1.11185 -16.8804 -4.07607 -17.3117 -19.0316 28.6331C-29.4871 13.9739 -8.52233 -49.5134 18.1553 -42.6418C27.5867 -42.6418 97.3833 -3.16045 123.518 -12.5959C152.621 -23.1028 187.787 -53.9143 207.862 -52.3424C206.515 -42.0576 191.802 -15.9887 177.143 -5.31771C162.484 5.35331 153.968 15.6984 123.518 28.6331C121.183 30.5194 103.443 28.6062 51.1654 5.86286Z" fill="#6E37E1"/>
</g>
<g filter="url(#filter6_f_251_3070)">
<path d="M51.1654 49.5186C-1.11185 26.7753 -4.07607 26.344 -19.0316 72.2888C-29.4871 57.6296 -8.52233 -5.85762 18.1553 1.01401C27.5867 1.01401 97.3833 40.4953 123.518 31.0599C152.621 20.553 187.787 -10.2586 207.862 -8.68666C206.515 1.59813 191.802 27.667 177.143 38.3381C162.484 49.0091 153.968 59.3542 123.518 72.2888C121.183 74.1751 103.443 72.2619 51.1654 49.5186Z" fill="#B537E1"/>
</g>
<g filter="url(#filter7_f_251_3070)">
<path d="M51.1654 93.1721C-1.11185 70.4288 -4.07607 69.9975 -19.0316 115.942C-29.4871 101.283 -8.52233 37.7959 18.1553 44.6675C27.5867 44.6675 97.3833 84.1488 123.518 74.7134C152.621 64.2065 187.787 33.3949 207.862 34.9668C206.515 45.2516 191.802 71.3205 177.143 81.9916C162.484 92.6626 153.968 103.008 123.518 115.942C121.183 117.829 103.443 115.915 51.1654 93.1721Z" fill="#3B37E1"/>
</g>
</g>
</g>
<g filter="url(#filter8_i_251_3070)">
<g clip-path="url(#clip2_251_3070)">
<rect x="74.4819" y="4.19019" width="32.8754" height="67.6371" rx="16.4377" fill="#9537E1"/>
<g filter="url(#filter9_f_251_3070)">
<path d="M88.4087 42.2425C36.1314 19.4992 33.1672 19.068 18.2116 65.0127C7.75618 50.3535 28.7209 -13.1337 55.3985 -6.26209C64.83 -6.26209 134.627 33.2192 160.761 23.7838C189.864 13.2769 225.03 -17.5347 245.106 -15.9627C243.758 -5.67796 229.045 20.3909 214.386 31.062C199.727 41.733 191.212 52.0781 160.761 65.0127C158.426 66.899 140.686 64.9858 88.4087 42.2425Z" fill="#6E37E1"/>
</g>
<g filter="url(#filter10_f_251_3070)">
<path d="M88.4087 85.896C36.1314 63.1527 33.1672 62.7215 18.2116 108.666C7.75618 94.007 28.7209 30.5198 55.3985 37.3914C64.83 37.3914 134.627 76.8727 160.761 67.4373C189.864 56.9304 225.03 26.1188 245.106 27.6908C243.758 37.9755 229.045 64.0444 214.386 74.7155C199.727 85.3865 191.212 95.7316 160.761 108.666C158.426 110.553 140.686 108.639 88.4087 85.896Z" fill="#B537E1"/>
</g>
<g filter="url(#filter11_f_251_3070)">
<path d="M88.4087 129.551C36.1314 106.807 33.1672 106.376 18.2116 152.321C7.75618 137.662 28.7209 74.1744 55.3985 81.0461C64.83 81.0461 134.627 120.527 160.761 111.092C189.864 100.585 225.03 69.7735 245.106 71.3454C243.758 81.6302 229.045 107.699 214.386 118.37C199.727 129.041 191.212 139.386 160.761 152.321C158.426 154.207 140.686 152.294 88.4087 129.551Z" fill="#3B37E1"/>
</g>
</g>
</g>
<defs>
<filter id="filter0_i_251_3070" x="0" y="4.18906" width="33.7243" height="68.7555" filterUnits="userSpaceOnUse" color-interpolation-filters="sRGB">
<feFlood flood-opacity="0" result="BackgroundImageFix"/>
<feBlend mode="normal" in="SourceGraphic" in2="BackgroundImageFix" result="shape"/>
<feColorMatrix in="SourceAlpha" type="matrix" values="0 0 0 0 0 0 0 0 0 0 0 0 0 0 0 0 0 0 127 0" result="hardAlpha"/>
<feMorphology radius="2.23683" operator="erode" in="SourceAlpha" result="effect1_innerShadow_251_3070"/>
<feOffset dx="1.11842" dy="1.11842"/>
<feGaussianBlur stdDeviation="1.67762"/>
<feComposite in2="hardAlpha" operator="arithmetic" k2="-1" k3="1"/>
<feColorMatrix type="matrix" values="0 0 0 0 1 0 0 0 0 1 0 0 0 0 1 0 0 0 0.15 0"/>
<feBlend mode="normal" in2="shape" result="effect1_innerShadow_251_3070"/>
</filter>
<filter id="filter1_f_251_3070" x="-87.0371" y="-44.0457" width="285.686" height="137.633" filterUnits="userSpaceOnUse" color-interpolation-filters="sRGB">
<feFlood flood-opacity="0" result="BackgroundImageFix"/>
<feBlend mode="normal" in="SourceGraphic" in2="BackgroundImageFix" result="shape"/>
<feGaussianBlur stdDeviation="14.0125" result="effect1_foregroundBlur_251_3070"/>
</filter>
<filter id="filter2_f_251_3070" x="-87.0371" y="-0.392191" width="285.686" height="137.633" filterUnits="userSpaceOnUse" color-interpolation-filters="sRGB">
<feFlood flood-opacity="0" result="BackgroundImageFix"/>
<feBlend mode="normal" in="SourceGraphic" in2="BackgroundImageFix" result="shape"/>
<feGaussianBlur stdDeviation="14.0125" result="effect1_foregroundBlur_251_3070"/>
</filter>
<filter id="filter3_f_251_3070" x="-87.0371" y="43.2624" width="285.686" height="137.633" filterUnits="userSpaceOnUse" color-interpolation-filters="sRGB">
<feFlood flood-opacity="0" result="BackgroundImageFix"/>
<feBlend mode="normal" in="SourceGraphic" in2="BackgroundImageFix" result="shape"/>
<feGaussianBlur stdDeviation="14.0125" result="effect1_foregroundBlur_251_3070"/>
</filter>
<filter id="filter4_i_251_3070" x="37.2409" y="29.2498" width="33.7243" height="43.6947" filterUnits="userSpaceOnUse" color-interpolation-filters="sRGB">
<feFlood flood-opacity="0" result="BackgroundImageFix"/>
<feBlend mode="normal" in="SourceGraphic" in2="BackgroundImageFix" result="shape"/>
<feColorMatrix in="SourceAlpha" type="matrix" values="0 0 0 0 0 0 0 0 0 0 0 0 0 0 0 0 0 0 127 0" result="hardAlpha"/>
<feMorphology radius="2.23683" operator="erode" in="SourceAlpha" result="effect1_innerShadow_251_3070"/>
<feOffset dx="1.11842" dy="1.11842"/>
<feGaussianBlur stdDeviation="1.67762"/>
<feComposite in2="hardAlpha" operator="arithmetic" k2="-1" k3="1"/>
<feColorMatrix type="matrix" values="0 0 0 0 1 0 0 0 0 1 0 0 0 0 1 0 0 0 0.15 0"/>
<feBlend mode="normal" in2="shape" result="effect1_innerShadow_251_3070"/>
</filter>
<filter id="filter5_f_251_3070" x="-49.7984" y="-80.4253" width="285.686" height="137.633" filterUnits="userSpaceOnUse" color-interpolation-filters="sRGB">
<feFlood flood-opacity="0" result="BackgroundImageFix"/>
<feBlend mode="normal" in="SourceGraphic" in2="BackgroundImageFix" result="shape"/>
<feGaussianBlur stdDeviation="14.0125" result="effect1_foregroundBlur_251_3070"/>
</filter>
<filter id="filter6_f_251_3070" x="-49.7984" y="-36.7696" width="285.686" height="137.633" filterUnits="userSpaceOnUse" color-interpolation-filters="sRGB">
<feFlood flood-opacity="0" result="BackgroundImageFix"/>
<feBlend mode="normal" in="SourceGraphic" in2="BackgroundImageFix" result="shape"/>
<feGaussianBlur stdDeviation="14.0125" result="effect1_foregroundBlur_251_3070"/>
</filter>
<filter id="filter7_f_251_3070" x="-49.7984" y="6.88393" width="285.686" height="137.633" filterUnits="userSpaceOnUse" color-interpolation-filters="sRGB">
<feFlood flood-opacity="0" result="BackgroundImageFix"/>
<feBlend mode="normal" in="SourceGraphic" in2="BackgroundImageFix" result="shape"/>
<feGaussianBlur stdDeviation="14.0125" result="effect1_foregroundBlur_251_3070"/>
</filter>
<filter id="filter8_i_251_3070" x="74.4819" y="4.19019" width="33.9938" height="68.7555" filterUnits="userSpaceOnUse" color-interpolation-filters="sRGB">
<feFlood flood-opacity="0" result="BackgroundImageFix"/>
<feBlend mode="normal" in="SourceGraphic" in2="BackgroundImageFix" result="shape"/>
<feColorMatrix in="SourceAlpha" type="matrix" values="0 0 0 0 0 0 0 0 0 0 0 0 0 0 0 0 0 0 127 0" result="hardAlpha"/>
<feMorphology radius="2.23683" operator="erode" in="SourceAlpha" result="effect1_innerShadow_251_3070"/>
<feOffset dx="1.11842" dy="1.11842"/>
<feGaussianBlur stdDeviation="1.67762"/>
<feComposite in2="hardAlpha" operator="arithmetic" k2="-1" k3="1"/>
<feColorMatrix type="matrix" values="0 0 0 0 1 0 0 0 0 1 0 0 0 0 1 0 0 0 0.15 0"/>
<feBlend mode="normal" in2="shape" result="effect1_innerShadow_251_3070"/>
</filter>
<filter id="filter9_f_251_3070" x="-12.5551" y="-44.0457" width="285.686" height="137.633" filterUnits="userSpaceOnUse" color-interpolation-filters="sRGB">
<feFlood flood-opacity="0" result="BackgroundImageFix"/>
<feBlend mode="normal" in="SourceGraphic" in2="BackgroundImageFix" result="shape"/>
<feGaussianBlur stdDeviation="14.0125" result="effect1_foregroundBlur_251_3070"/>
</filter>
<filter id="filter10_f_251_3070" x="-12.5551" y="-0.39216" width="285.686" height="137.633" filterUnits="userSpaceOnUse" color-interpolation-filters="sRGB">
<feFlood flood-opacity="0" result="BackgroundImageFix"/>
<feBlend mode="normal" in="SourceGraphic" in2="BackgroundImageFix" result="shape"/>
<feGaussianBlur stdDeviation="14.0125" result="effect1_foregroundBlur_251_3070"/>
</filter>
<filter id="filter11_f_251_3070" x="-12.5551" y="43.2625" width="285.686" height="137.633" filterUnits="userSpaceOnUse" color-interpolation-filters="sRGB">
<feFlood flood-opacity="0" result="BackgroundImageFix"/>
<feBlend mode="normal" in="SourceGraphic" in2="BackgroundImageFix" result="shape"/>
<feGaussianBlur stdDeviation="14.0125" result="effect1_foregroundBlur_251_3070"/>
</filter>
<clipPath id="clip0_251_3070">
<rect y="4.18906" width="32.6059" height="67.6371" rx="16.303" fill="white"/>
</clipPath>
<clipPath id="clip1_251_3070">
<rect x="37.2409" y="29.2498" width="32.6059" height="42.5763" rx="16.303" fill="white"/>
</clipPath>
<clipPath id="clip2_251_3070">
<rect x="74.4819" y="4.19019" width="32.8754" height="67.6371" rx="16.4377" fill="white"/>
</clipPath>
</defs>
</svg>
